STARTFONT 2.1
COMMENT 13x34amc.bdf 1.2.0 (2001-Jan-26-Fri)
COMMENT Adam M. Costello <amc@cs.berkeley.edu>
COMMENT 
COMMENT 13x34amc is a sans-serif Latin-1 font designed for use with 
COMMENT kanji34amc (amckan34.bdf, produced from jiskan24.bdf by the
COMMENT script make-amckan34-bdf).
COMMENT 
COMMENT Copyright (c) 2000 Adam M. Costello.  Everyone is hereby granted
COMMENT permission to do whatever they like with this file, provided
COMMENT that if they modify it they take reasonable steps to avoid
COMMENT confusing or misleading people about the authors, version, and
COMMENT terms of use of the derived file.  The copyright holder makes
COMMENT no guarantees about the correctness of this file, and is not
COMMENT responsible for any damage resulting from its use.
COMMENT
COMMENT Change log:
COMMENT
COMMENT 1.2.0 (2001-Jan-26-Fri)
COMMENT   Fixed apostrophe (0x27) to be vertical.  See:
COMMENT   http://www.cl.cam.ac.uk/~mgk25/ucs/quotes.html
COMMENT
COMMENT 1.1.0 (2000-Jun-24-Sat)
COMMENT   Raised and widened the bars on the yen sign (0xA5).
COMMENT
COMMENT 1.0.0 (2000-Jun-12-Mon)
COMMENT   Initial version.
COMMENT 
FONT -AMC-Romaji-Medium-R-Normal--34-340-75-75-C-130-ISO8859-1
SIZE 34 75 75
FONTBOUNDINGBOX 13 34 0 -8
STARTPROPERTIES 20
POINT_SIZE 340
PIXEL_SIZE 34
RESOLUTION_X 75
RESOLUTION_Y 75
FONT_ASCENT 26
FONT_DESCENT 8
AVERAGE_WIDTH 130
SPACING "C"
CHARSET_ENCODING "1"
CHARSET_REGISTRY "ISO8859"
COPYRIGHT "Copyright 2000 Adam M. Costello"
DEFAULT_CHAR 0
FOUNDRY "AMC"
SETWIDTH_NAME "Normal"
SLANT "R"
WEIGHT_NAME "Medium"
FAMILY_NAME "Romaji"
CAP_HEIGHT 20
X_HEIGHT 14
_XMBDFED_INFO "Edited with xmbdfed 4.3."
ENDPROPERTIES
CHARS 191
STARTCHAR space
ENCODING 32
SWIDTH 367 0
DWIDTH 13 0
BBX 13 34 0 -8
BITMAP
0000
0000
0000
0000
0000
0000
0000
0000
0000
0000
0000
0000
0000
0000
0000
0000
0000
0000
0000
0000
0000
0000
0000
0000
0000
0000
0000
0000
0000
0000
0000
0000
0000
0000
ENDCHAR
STARTCHAR exclamation mark
ENCODING 33
SWIDTH 367 0
DWIDTH 13 0
BBX 13 34 0 -8
BITMAP
0000
0000
0000
0000
0000
0000
0600
0600
0600
0600
0600
0600
0600
0600
0600
0600
0600
0600
0600
0600
0600
0000
0000
0600
0600
0600
0000
0000
0000
0000
0000
0000
0000
0000
ENDCHAR
STARTCHAR quotation mark
ENCODING 34
SWIDTH 367 0
DWIDTH 13 0
BBX 13 34 0 -8
BITMAP
0000
0000
0000
0000
0000
0000
1980
1980
1980
1980
1980
0000
0000
0000
0000
0000
0000
0000
0000
0000
0000
0000
0000
0000
0000
0000
0000
0000
0000
0000
0000
0000
0000
0000
ENDCHAR
STARTCHAR number sign
ENCODING 35
SWIDTH 367 0
DWIDTH 13 0
BBX 13 34 0 -8
BITMAP
0000
0000
0000
0000
0000
0000
0000
0000
0CC0
0CC0
0CC0
0CC0
7FF0
7FF0
1980
1980
1980
1980
FFE0
FFE0
3300
3300
3300
3300
0000
0000
0000
0000
0000
0000
0000
0000
0000
0000
ENDCHAR
STARTCHAR dollar sign
ENCODING 36
SWIDTH 367 0
DWIDTH 13 0
BBX 13 34 0 -8
BITMAP
0000
0000
0000
0000
0000
0000
0600
0600
0600
1F80
3FE0
7660
6600
6600
3600
3F00
0FC0
06C0
0660
0660
66E0
7FC0
1F80
0600
0600
0600
0000
0000
0000
0000
0000
0000
0000
0000
ENDCHAR
STARTCHAR percent sign
ENCODING 37
SWIDTH 367 0
DWIDTH 13 0
BBX 13 34 0 -8
BITMAP
0000
0000
0000
0000
0000
0000
7820
FC60
CC60
CCC0
CCC0
FD80
7980
0300
0300
0600
0600
0C00
0C00
19E0
1BF0
3330
3330
6330
63F0
41E0
0000
0000
0000
0000
0000
0000
0000
0000
ENDCHAR
STARTCHAR ampersand
ENCODING 38
SWIDTH 367 0
DWIDTH 13 0
BBX 13 34 0 -8
BITMAP
0000
0000
0000
0000
0000
0000
1E00
1F00
3300
3300
3300
3300
3600
1E00
3800
3C00
6C00
6600
C730
C330
C1E0
C1E0
C0C0
61E0
7FF0
1E30
0000
0000
0000
0000
0000
0000
0000
0000
ENDCHAR
STARTCHAR apostrophe
ENCODING 39
SWIDTH 367 0
DWIDTH 13 0
BBX 13 34 0 -8
BITMAP
0000
0000
0000
0000
0000
0000
0600
0600
0600
0600
0600
0000
0000
0000
0000
0000
0000
0000
0000
0000
0000
0000
0000
0000
0000
0000
0000
0000
0000
0000
0000
0000
0000
0000
ENDCHAR
STARTCHAR left parenthesis
ENCODING 40
SWIDTH 367 0
DWIDTH 13 0
BBX 13 34 0 -8
BITMAP
0000
0000
0000
0000
0000
0000
0030
0070
00E0
01C0
0180
0300
0300
0300
0600
0600
0600
0600
0600
0600
0600
0600
0600
0600
0300
0300
0300
0180
01C0
00E0
0070
0030
0000
0000
ENDCHAR
STARTCHAR right parenthesis
ENCODING 41
SWIDTH 367 0
DWIDTH 13 0
BBX 13 34 0 -8
BITMAP
0000
0000
0000
0000
0000
0000
C000
E000
7000
3800
1800
0C00
0C00
0C00
0600
0600
0600
0600
0600
0600
0600
0600
0600
0600
0C00
0C00
0C00
1800
3800
7000
E000
C000
0000
0000
ENDCHAR
STARTCHAR asterisk
ENCODING 42
SWIDTH 367 0
DWIDTH 13 0
BBX 13 34 0 -8
BITMAP
0000
0000
0000
0000
0000
0000
0000
0000
0000
0000
0000
1980
1980
0F00
0F00
7FE0
7FE0
0F00
0F00
1980
1980
0000
0000
0000
0000
0000
0000
0000
0000
0000
0000
0000
0000
0000
ENDCHAR
STARTCHAR plus sign
ENCODING 43
SWIDTH 367 0
DWIDTH 13 0
BBX 13 34 0 -8
BITMAP
0000
0000
0000
0000
0000
0000
0000
0000
0000
0000
0000
0000
0600
0600
0600
0600
7FE0
7FE0
0600
0600
0600
0600
0000
0000
0000
0000
0000
0000
0000
0000
0000
0000
0000
0000
ENDCHAR
STARTCHAR comma
ENCODING 44
SWIDTH 367 0
DWIDTH 13 0
BBX 13 34 0 -8
BITMAP
0000
0000
0000
0000
0000
0000
0000
0000
0000
0000
0000
0000
0000
0000
0000
0000
0000
0000
0000
0000
0000
0000
0000
0E00
0E00
0E00
1C00
3800
0000
0000
0000
0000
0000
0000
ENDCHAR
STARTCHAR hyphen-minus
ENCODING 45
SWIDTH 367 0
DWIDTH 13 0
BBX 13 34 0 -8
BITMAP
0000
0000
0000
0000
0000
0000
0000
0000
0000
0000
0000
0000
0000
0000
0000
0000
7FE0
7FE0
0000
0000
0000
0000
0000
0000
0000
0000
0000
0000
0000
0000
0000
0000
0000
0000
ENDCHAR
STARTCHAR full stop
ENCODING 46
SWIDTH 367 0
DWIDTH 13 0
BBX 13 34 0 -8
BITMAP
0000
0000
0000
0000
0000
0000
0000
0000
0000
0000
0000
0000
0000
0000
0000
0000
0000
0000
0000
0000
0000
0000
0000
0E00
0E00
0E00
0000
0000
0000
0000
0000
0000
0000
0000
ENDCHAR
STARTCHAR solidus
ENCODING 47
SWIDTH 367 0
DWIDTH 13 0
BBX 13 34 0 -8
BITMAP
0000
0000
0000
0000
0000
0000
0030
0060
0060
00C0
00C0
0180
0180
0300
0300
0600
0600
0C00
0C00
1800
1800
3000
3000
6000
6000
C000
0000
0000
0000
0000
0000
0000
0000
0000
ENDCHAR
STARTCHAR digit zero
ENCODING 48
SWIDTH 367 0
DWIDTH 13 0
BBX 13 34 0 -8
BITMAP
0000
0000
0000
0000
0000
0000
0F00
3FC0
30C0
6060
6060
6060
6060
6060
6060
6060
6060
6060
6060
6060
6060
6060
6060
30C0
3FC0
0F00
0000
0000
0000
0000
0000
0000
0000
0000
ENDCHAR
STARTCHAR digit one
ENCODING 49
SWIDTH 367 0
DWIDTH 13 0
BBX 13 34 0 -8
BITMAP
0000
0000
0000
0000
0000
0000
0300
0300
0700
1F00
1F00
0300
0300
0300
0300
0300
0300
0300
0300
0300
0300
0300
0300
0300
0300
0300
0000
0000
0000
0000
0000
0000
0000
0000
ENDCHAR
STARTCHAR digit two
ENCODING 50
SWIDTH 367 0
DWIDTH 13 0
BBX 13 34 0 -8
BITMAP
0000
0000
0000
0000
0000
0000
0F00
3FC0
30C0
6060
6060
0060
0060
0060
00C0
01C0
0380
0700
0E00
1C00
3800
3000
6000
6000
7FE0
7FE0
0000
0000
0000
0000
0000
0000
0000
0000
ENDCHAR
STARTCHAR digit three
ENCODING 51
SWIDTH 367 0
DWIDTH 13 0
BBX 13 34 0 -8
BITMAP
0000
0000
0000
0000
0000
0000
0F00
3FC0
30C0
6060
6060
0060
0060
0060
00C0
0F80
0FC0
00C0
0060
0060
0060
6060
6060
30C0
3FC0
0F00
0000
0000
0000
0000
0000
0000
0000
0000
ENDCHAR
STARTCHAR digit four
ENCODING 52
SWIDTH 367 0
DWIDTH 13 0
BBX 13 34 0 -8
BITMAP
0000
0000
0000
0000
0000
0000
0180
0380
0380
0780
0F80
0D80
1980
3980
3180
6180
6180
C180
FFF0
FFF0
0180
0180
0180
0180
0180
0180
0000
0000
0000
0000
0000
0000
0000
0000
ENDCHAR
STARTCHAR digit five
ENCODING 53
SWIDTH 367 0
DWIDTH 13 0
BBX 13 34 0 -8
BITMAP
0000
0000
0000
0000
0000
0000
7FC0
7FC0
6000
6000
6000
6000
6000
6F00
7FC0
70C0
0060
0060
0060
0060
0060
6060
6060
30C0
3FC0
0F00
0000
0000
0000
0000
0000
0000
0000
0000
ENDCHAR
STARTCHAR digit six
ENCODING 54
SWIDTH 367 0
DWIDTH 13 0
BBX 13 34 0 -8
BITMAP
0000
0000
0000
0000
0000
0000
0F00
3FC0
30C0
6060
6060
6000
6000
6000
6F00
7FC0
70C0
6060
6060
6060
6060
6060
6060
30C0
3FC0
0F00
0000
0000
0000
0000
0000
0000
0000
0000
ENDCHAR
STARTCHAR digit seven
ENCODING 55
SWIDTH 367 0
DWIDTH 13 0
BBX 13 34 0 -8
BITMAP
0000
0000
0000
0000
0000
0000
7FE0
7FE0
0060
00C0
00C0
00C0
0180
0180
0180
0300
0300
0300
0600
0600
0600
0600
0C00
0C00
0C00
0C00
0000
0000
0000
0000
0000
0000
0000
0000
ENDCHAR
STARTCHAR digit eight
ENCODING 56
SWIDTH 367 0
DWIDTH 13 0
BBX 13 34 0 -8
BITMAP
0000
0000
0000
0000
0000
0000
0F00
3FC0
30C0
6060
6060
6060
6060
6060
30C0
3F80
1FC0
30C0
6060
6060
6060
6060
6060
30C0
3FC0
0F00
0000
0000
0000
0000
0000
0000
0000
0000
ENDCHAR
STARTCHAR digit nine
ENCODING 57
SWIDTH 367 0
DWIDTH 13 0
BBX 13 34 0 -8
BITMAP
0000
0000
0000
0000
0000
0000
0F00
3FC0
30C0
6060
6060
6060
6060
6060
6060
30E0
3FE0
0F60
0060
0060
0060
6060
6060
30C0
3FC0
0F00
0000
0000
0000
0000
0000
0000
0000
0000
ENDCHAR
STARTCHAR colon
ENCODING 58
SWIDTH 367 0
DWIDTH 13 0
BBX 13 34 0 -8
BITMAP
0000
0000
0000
0000
0000
0000
0000
0000
0000
0000
0000
0000
0E00
0E00
0E00
0000
0000
0000
0000
0000
0000
0000
0000
0E00
0E00
0E00
0000
0000
0000
0000
0000
0000
0000
0000
ENDCHAR
STARTCHAR semicolon
ENCODING 59
SWIDTH 367 0
DWIDTH 13 0
BBX 13 34 0 -8
BITMAP
0000
0000
0000
0000
0000
0000
0000
0000
0000
0000
0000
0000
0E00
0E00
0E00
0000
0000
0000
0000
0000
0000
0000
0000
0E00
0E00
0E00
1C00
3800
0000
0000
0000
0000
0000
0000
ENDCHAR
STARTCHAR less-than sign
ENCODING 60
SWIDTH 367 0
DWIDTH 13 0
BBX 13 34 0 -8
BITMAP
0000
0000
0000
0000
0000
0000
0000
0000
0060
00E0
01C0
0380
0700
0E00
1C00
3800
7000
7000
3800
1C00
0E00
0700
0380
01C0
00E0
0060
0000
0000
0000
0000
0000
0000
0000
0000
ENDCHAR
STARTCHAR equals sign
ENCODING 61
SWIDTH 367 0
DWIDTH 13 0
BBX 13 34 0 -8
BITMAP
0000
0000
0000
0000
0000
0000
0000
0000
0000
0000
0000
0000
0000
7FE0
7FE0
0000
0000
0000
0000
7FE0
7FE0
0000
0000
0000
0000
0000
0000
0000
0000
0000
0000
0000
0000
0000
ENDCHAR
STARTCHAR greater-than sign
ENCODING 62
SWIDTH 367 0
DWIDTH 13 0
BBX 13 34 0 -8
BITMAP
0000
0000
0000
0000
0000
0000
0000
0000
6000
7000
3800
1C00
0E00
0700
0380
01C0
00E0
00E0
01C0
0380
0700
0E00
1C00
3800
7000
6000
0000
0000
0000
0000
0000
0000
0000
0000
ENDCHAR
STARTCHAR question mark
ENCODING 63
SWIDTH 367 0
DWIDTH 13 0
BBX 13 34 0 -8
BITMAP
0000
0000
0000
0000
0000
0000
0F00
3FC0
30C0
6060
6060
0060
00C0
00C0
0180
0180
0300
0300
0600
0600
0600
0000
0000
0600
0600
0600
0000
0000
0000
0000
0000
0000
0000
0000
ENDCHAR
STARTCHAR commercial at
ENCODING 64
SWIDTH 367 0
DWIDTH 13 0
BBX 13 34 0 -8
BITMAP
0000
0000
0000
0000
0000
0000
0F00
3FC0
30E0
6060
6030
C7B0
CFB0
CDB0
D9B0
D9B0
D9B0
D9B0
DBB0
DFE0
CEE0
C000
6000
7060
3FE0
0F80
0000
0000
0000
0000
0000
0000
0000
0000
ENDCHAR
STARTCHAR Latin capital letter A
ENCODING 65
SWIDTH 367 0
DWIDTH 13 0
BBX 13 34 0 -8
BITMAP
0000
0000
0000
0000
0000
0000
0600
0600
0F00
0F00
0F00
1980
1980
1980
30C0
30C0
30C0
3FC0
7FE0
6060
6060
6060
C030
C030
C030
C030
0000
0000
0000
0000
0000
0000
0000
0000
ENDCHAR
STARTCHAR Latin capital letter B
ENCODING 66
SWIDTH 367 0
DWIDTH 13 0
BBX 13 34 0 -8
BITMAP
0000
0000
0000
0000
0000
0000
7F00
7FC0
60C0
6060
6060
6060
6060
6060
60C0
7FC0
7FE0
6060
6030
6030
6030
6030
6030
6060
7FE0
7F80
0000
0000
0000
0000
0000
0000
0000
0000
ENDCHAR
STARTCHAR Latin capital letter C
ENCODING 67
SWIDTH 367 0
DWIDTH 13 0
BBX 13 34 0 -8
BITMAP
0000
0000
0000
0000
0000
0000
0F80
3FE0
3060
6030
6030
C000
C000
C000
C000
C000
C000
C000
C000
C000
C000
6030
6030
3060
3FE0
0F80
0000
0000
0000
0000
0000
0000
0000
0000
ENDCHAR
STARTCHAR Latin capital letter D
ENCODING 68
SWIDTH 367 0
DWIDTH 13 0
BBX 13 34 0 -8
BITMAP
0000
0000
0000
0000
0000
0000
7F00
7FC0
60C0
6060
6060
6030
6030
6030
6030
6030
6030
6030
6030
6030
6030
6060
6060
60C0
7FC0
7F00
0000
0000
0000
0000
0000
0000
0000
0000
ENDCHAR
STARTCHAR Latin capital letter E
ENCODING 69
SWIDTH 367 0
DWIDTH 13 0
BBX 13 34 0 -8
BITMAP
0000
0000
0000
0000
0000
0000
7FF0
7FF0
6000
6000
6000
6000
6000
6000
6000
7FC0
7FC0
6000
6000
6000
6000
6000
6000
6000
7FF0
7FF0
0000
0000
0000
0000
0000
0000
0000
0000
ENDCHAR
STARTCHAR Latin capital letter F
ENCODING 70
SWIDTH 367 0
DWIDTH 13 0
BBX 13 34 0 -8
BITMAP
0000
0000
0000
0000
0000
0000
7FF0
7FF0
6000
6000
6000
6000
6000
6000
6000
7FC0
7FC0
6000
6000
6000
6000
6000
6000
6000
6000
6000
0000
0000
0000
0000
0000
0000
0000
0000
ENDCHAR
STARTCHAR Latin capital letter G
ENCODING 71
SWIDTH 367 0
DWIDTH 13 0
BBX 13 34 0 -8
BITMAP
0000
0000
0000
0000
0000
0000
0F00
3FC0
30C0
6060
6060
C000
C000
C000
C000
C1E0
C1E0
C060
C060
C060
C060
6060
6060
30E0
3FE0
0F00
0000
0000
0000
0000
0000
0000
0000
0000
ENDCHAR
STARTCHAR Latin capital letter H
ENCODING 72
SWIDTH 367 0
DWIDTH 13 0
BBX 13 34 0 -8
BITMAP
0000
0000
0000
0000
0000
0000
6060
6060
6060
6060
6060
6060
6060
6060
6060
7FE0
7FE0
6060
6060
6060
6060
6060
6060
6060
6060
6060
0000
0000
0000
0000
0000
0000
0000
0000
ENDCHAR
STARTCHAR Latin captial letter I
ENCODING 73
SWIDTH 367 0
DWIDTH 13 0
BBX 13 34 0 -8
BITMAP
0000
0000
0000
0000
0000
0000
3FC0
3FC0
0600
0600
0600
0600
0600
0600
0600
0600
0600
0600
0600
0600
0600
0600
0600
0600
3FC0
3FC0
0000
0000
0000
0000
0000
0000
0000
0000
ENDCHAR
STARTCHAR Latin capital letter J
ENCODING 74
SWIDTH 367 0
DWIDTH 13 0
BBX 13 34 0 -8
BITMAP
0000
0000
0000
0000
0000
0000
0FF0
0FF0
00C0
00C0
00C0
00C0
00C0
00C0
00C0
00C0
00C0
00C0
00C0
00C0
C0C0
C0C0
C0C0
6180
7F80
1E00
0000
0000
0000
0000
0000
0000
0000
0000
ENDCHAR
STARTCHAR Latin capital letter K
ENCODING 75
SWIDTH 367 0
DWIDTH 13 0
BBX 13 34 0 -8
BITMAP
0000
0000
0000
0000
0000
0000
6060
60E0
60C0
6180
6380
6300
6600
6E00
6E00
7E00
7B00
7300
6180
6180
60C0
60C0
6060
6060
6030
6030
0000
0000
0000
0000
0000
0000
0000
0000
ENDCHAR
STARTCHAR Latin capital letter L
ENCODING 76
SWIDTH 367 0
DWIDTH 13 0
BBX 13 34 0 -8
BITMAP
0000
0000
0000
0000
0000
0000
6000
6000
6000
6000
6000
6000
6000
6000
6000
6000
6000
6000
6000
6000
6000
6000
6000
6000
7FF0
7FF0
0000
0000
0000
0000
0000
0000
0000
0000
ENDCHAR
STARTCHAR Latin capital letter M
ENCODING 77
SWIDTH 367 0
DWIDTH 13 0
BBX 13 34 0 -8
BITMAP
0000
0000
0000
0000
0000
0000
6060
6060
6060
70E0
70E0
70E0
79E0
79E0
79E0
6F60
6F60
6F60
6660
6660
6660
6060
6060
6060
6060
6060
0000
0000
0000
0000
0000
0000
0000
0000
ENDCHAR
STARTCHAR Latin capital letter N
ENCODING 78
SWIDTH 367 0
DWIDTH 13 0
BBX 13 34 0 -8
BITMAP
0000
0000
0000
0000
0000
0000
6060
6060
7060
7060
7860
7860
6C60
6C60
6C60
6660
6660
6360
6360
6360
61E0
61E0
60E0
60E0
6060
6060
0000
0000
0000
0000
0000
0000
0000
0000
ENDCHAR
STARTCHAR Latin capital letter O
ENCODING 79
SWIDTH 367 0
DWIDTH 13 0
BBX 13 34 0 -8
BITMAP
0000
0000
0000
0000
0000
0000
0F00
3FC0
30C0
6060
6060
C030
C030
C030
C030
C030
C030
C030
C030
C030
C030
6060
6060
30C0
3FC0
0F00
0000
0000
0000
0000
0000
0000
0000
0000
ENDCHAR
STARTCHAR Latin capital letter P
ENCODING 80
SWIDTH 367 0
DWIDTH 13 0
BBX 13 34 0 -8
BITMAP
0000
0000
0000
0000
0000
0000
7F80
7FE0
6060
6030
6030
6030
6030
6030
6060
7FE0
7F80
6000
6000
6000
6000
6000
6000
6000
6000
6000
0000
0000
0000
0000
0000
0000
0000
0000
ENDCHAR
STARTCHAR Latin capital letter Q
ENCODING 81
SWIDTH 367 0
DWIDTH 13 0
BBX 13 34 0 -8
BITMAP
0000
0000
0000
0000
0000
0000
0F00
3FC0
30C0
6060
6060
C030
C030
C030
C030
C030
C030
C030
C030
C030
C030
6360
63E0
31C0
3FE0
0F70
0030
0000
0000
0000
0000
0000
0000
0000
ENDCHAR
STARTCHAR Latin capital letter R
ENCODING 82
SWIDTH 367 0
DWIDTH 13 0
BBX 13 34 0 -8
BITMAP
0000
0000
0000
0000
0000
0000
7F00
7FC0
60C0
6060
6060
6060
6060
6060
60C0
7FC0
7F00
6300
6180
6180
60C0
60C0
6060
6060
6030
6030
0000
0000
0000
0000
0000
0000
0000
0000
ENDCHAR
STARTCHAR Latin capital letter S
ENCODING 83
SWIDTH 367 0
DWIDTH 13 0
BBX 13 34 0 -8
BITMAP
0000
0000
0000
0000
0000
0000
1F00
7FC0
60E0
C060
C000
C000
6000
7000
3C00
0F00
03C0
00E0
0060
0030
0030
0030
C060
E0E0
7FC0
1F00
0000
0000
0000
0000
0000
0000
0000
0000
ENDCHAR
STARTCHAR Latin captial letter T
ENCODING 84
SWIDTH 367 0
DWIDTH 13 0
BBX 13 34 0 -8
BITMAP
0000
0000
0000
0000
0000
0000
FFF0
FFF0
0600
0600
0600
0600
0600
0600
0600
0600
0600
0600
0600
0600
0600
0600
0600
0600
0600
0600
0000
0000
0000
0000
0000
0000
0000
0000
ENDCHAR
STARTCHAR Latin capital letter U
ENCODING 85
SWIDTH 367 0
DWIDTH 13 0
BBX 13 34 0 -8
BITMAP
0000
0000
0000
0000
0000
0000
6060
6060
6060
6060
6060
6060
6060
6060
6060
6060
6060
6060
6060
6060
6060
6060
6060
30C0
3FC0
0F00
0000
0000
0000
0000
0000
0000
0000
0000
ENDCHAR
STARTCHAR Latin capital letter V
ENCODING 86
SWIDTH 367 0
DWIDTH 13 0
BBX 13 34 0 -8
BITMAP
0000
0000
0000
0000
0000
0000
C030
C030
C030
C030
6060
6060
6060
6060
30C0
30C0
30C0
30C0
1980
1980
1980
0F00
0F00
0F00
0600
0600
0000
0000
0000
0000
0000
0000
0000
0000
ENDCHAR
STARTCHAR Latin capital letter W
ENCODING 87
SWIDTH 367 0
DWIDTH 13 0
BBX 13 34 0 -8
BITMAP
0000
0000
0000
0000
0000
0000
C030
C030
C030
C030
C630
C630
6660
6660
6F60
6F60
6F60
6F60
79E0
39C0
39C0
39C0
30C0
30C0
30C0
30C0
0000
0000
0000
0000
0000
0000
0000
0000
ENDCHAR
STARTCHAR Latin capital letter X
ENCODING 88
SWIDTH 367 0
DWIDTH 13 0
BBX 13 34 0 -8
BITMAP
0000
0000
0000
0000
0000
0000
C030
C030
6060
6060
30C0
39C0
1980
0F00
0F00
0600
0600
0F00
0F00
1980
39C0
30C0
6060
6060
C030
C030
0000
0000
0000
0000
0000
0000
0000
0000
ENDCHAR
STARTCHAR Latin capital letter Y
ENCODING 89
SWIDTH 367 0
DWIDTH 13 0
BBX 13 34 0 -8
BITMAP
0000
0000
0000
0000
0000
0000
C030
C030
6060
6060
30C0
30C0
1980
1980
0F00
0F00
0600
0600
0600
0600
0600
0600
0600
0600
0600
0600
0000
0000
0000
0000
0000
0000
0000
0000
ENDCHAR
STARTCHAR Latin capital letter Z
ENCODING 90
SWIDTH 367 0
DWIDTH 13 0
BBX 13 34 0 -8
BITMAP
0000
0000
0000
0000
0000
0000
FFF0
FFF0
0060
0060
00C0
01C0
0180
0300
0300
0600
0600
0C00
0C00
1800
3800
3000
6000
6000
FFF0
FFF0
0000
0000
0000
0000
0000
0000
0000
0000
ENDCHAR
STARTCHAR left square bracket
ENCODING 91
SWIDTH 367 0
DWIDTH 13 0
BBX 13 34 0 -8
BITMAP
0000
0000
0000
0000
0000
0000
07F0
07F0
0600
0600
0600
0600
0600
0600
0600
0600
0600
0600
0600
0600
0600
0600
0600
0600
0600
0600
0600
0600
0600
0600
07F0
07F0
0000
0000
ENDCHAR
STARTCHAR reverse solidus
ENCODING 92
SWIDTH 367 0
DWIDTH 13 0
BBX 13 34 0 -8
BITMAP
0000
0000
0000
0000
0000
0000
C000
6000
6000
3000
3000
1800
1800
0C00
0C00
0600
0600
0300
0300
0180
0180
00C0
00C0
0060
0060
0030
0000
0000
0000
0000
0000
0000
0000
0000
ENDCHAR
STARTCHAR right square bracket
ENCODING 93
SWIDTH 367 0
DWIDTH 13 0
BBX 13 34 0 -8
BITMAP
0000
0000
0000
0000
0000
0000
FE00
FE00
0600
0600
0600
0600
0600
0600
0600
0600
0600
0600
0600
0600
0600
0600
0600
0600
0600
0600
0600
0600
0600
0600
FE00
FE00
0000
0000
ENDCHAR
STARTCHAR circumflex accent
ENCODING 94
SWIDTH 367 0
DWIDTH 13 0
BBX 13 34 0 -8
BITMAP
0000
0000
0000
0000
0000
0000
0600
0F00
1F80
39C0
30C0
0000
0000
0000
0000
0000
0000
0000
0000
0000
0000
0000
0000
0000
0000
0000
0000
0000
0000
0000
0000
0000
0000
0000
ENDCHAR
STARTCHAR low line
ENCODING 95
SWIDTH 367 0
DWIDTH 13 0
BBX 13 34 0 -8
BITMAP
0000
0000
0000
0000
0000
0000
0000
0000
0000
0000
0000
0000
0000
0000
0000
0000
0000
0000
0000
0000
0000
0000
0000
0000
0000
0000
0000
0000
FFF0
FFF0
0000
0000
0000
0000
ENDCHAR
STARTCHAR grave accent
ENCODING 96
SWIDTH 367 0
DWIDTH 13 0
BBX 13 34 0 -8
BITMAP
0000
0000
0000
0000
0000
0000
1C00
1C00
0E00
0600
0300
0000
0000
0000
0000
0000
0000
0000
0000
0000
0000
0000
0000
0000
0000
0000
0000
0000
0000
0000
0000
0000
0000
0000
ENDCHAR
STARTCHAR Latin small letter a
ENCODING 97
SWIDTH 367 0
DWIDTH 13 0
BBX 13 34 0 -8
BITMAP
0000
0000
0000
0000
0000
0000
0000
0000
0000
0000
0000
0000
1F00
7FC0
60C0
0060
0060
1FE0
7FE0
6060
C060
C060
C060
E0E0
7FF0
3F30
0000
0000
0000
0000
0000
0000
0000
0000
ENDCHAR
STARTCHAR Latin small letter b
ENCODING 98
SWIDTH 367 0
DWIDTH 13 0
BBX 13 34 0 -8
BITMAP
0000
0000
0000
0000
0000
0000
6000
6000
6000
6000
6000
6000
6700
7FC0
78E0
7060
6030
6030
6030
6030
6030
6030
7060
78E0
7FC0
6700
0000
0000
0000
0000
0000
0000
0000
0000
ENDCHAR
STARTCHAR Latin small letter c
ENCODING 99
SWIDTH 367 0
DWIDTH 13 0
BBX 13 34 0 -8
BITMAP
0000
0000
0000
0000
0000
0000
0000
0000
0000
0000
0000
0000
0F80
3FE0
7070
6030
C000
C000
C000
C000
C000
C000
6030
7070
3FE0
0F80
0000
0000
0000
0000
0000
0000
0000
0000
ENDCHAR
STARTCHAR Latin small letter d
ENCODING 100
SWIDTH 367 0
DWIDTH 13 0
BBX 13 34 0 -8
BITMAP
0000
0000
0000
0000
0000
0000
0060
0060
0060
0060
0060
0060
0E60
3FE0
71E0
60E0
C060
C060
C060
C060
C060
C060
60E0
71E0
3FE0
0E60
0000
0000
0000
0000
0000
0000
0000
0000
ENDCHAR
STARTCHAR Latin small letter e
ENCODING 101
SWIDTH 367 0
DWIDTH 13 0
BBX 13 34 0 -8
BITMAP
0000
0000
0000
0000
0000
0000
0000
0000
0000
0000
0000
0000
0F00
3FC0
70E0
6060
C030
FFF0
FFF0
C000
C000
C000
6030
7070
3FE0
0F80
0000
0000
0000
0000
0000
0000
0000
0000
ENDCHAR
STARTCHAR Latin small letter f
ENCODING 102
SWIDTH 367 0
DWIDTH 13 0
BBX 13 34 0 -8
BITMAP
0000
0000
0000
0000
0000
0000
03C0
0FF0
0C30
1800
1800
1800
1800
1800
1800
FFC0
FFC0
1800
1800
1800
1800
1800
1800
1800
1800
1800
0000
0000
0000
0000
0000
0000
0000
0000
ENDCHAR
STARTCHAR Latin small letter g
ENCODING 103
SWIDTH 367 0
DWIDTH 13 0
BBX 13 34 0 -8
BITMAP
0000
0000
0000
0000
0000
0000
0000
0000
0000
0000
0000
0000
0E60
3FE0
71E0
60E0
C060
C060
C060
C060
C060
C060
60E0
71E0
3FE0
0E60
0060
0060
C060
E0C0
7FC0
3F00
0000
0000
ENDCHAR
STARTCHAR Latin small letter h
ENCODING 104
SWIDTH 367 0
DWIDTH 13 0
BBX 13 34 0 -8
BITMAP
0000
0000
0000
0000
0000
0000
6000
6000
6000
6000
6000
6000
6F00
7FC0
70C0
6060
6060
6060
6060
6060
6060
6060
6060
6060
6060
6060
0000
0000
0000
0000
0000
0000
0000
0000
ENDCHAR
STARTCHAR Latin small letter i
ENCODING 105
SWIDTH 367 0
DWIDTH 13 0
BBX 13 34 0 -8
BITMAP
0000
0000
0000
0000
0000
0000
0E00
0E00
0E00
0000
0000
0000
3E00
3E00
0600
0600
0600
0600
0600
0600
0600
0600
0600
0600
3FC0
3FC0
0000
0000
0000
0000
0000
0000
0000
0000
ENDCHAR
STARTCHAR Latin small letter j
ENCODING 106
SWIDTH 367 0
DWIDTH 13 0
BBX 13 34 0 -8
BITMAP
0000
0000
0000
0000
0000
0000
01C0
01C0
01C0
0000
0000
0000
07C0
07C0
00C0
00C0
00C0
00C0
00C0
00C0
00C0
00C0
00C0
00C0
00C0
00C0
C0C0
C0C0
C0C0
6180
7F80
1E00
0000
0000
ENDCHAR
STARTCHAR Latin small letter k
ENCODING 107
SWIDTH 367 0
DWIDTH 13 0
BBX 13 34 0 -8
BITMAP
0000
0000
0000
0000
0000
0000
6000
6000
6000
6000
6000
6000
6060
60E0
61C0
6380
6700
6E00
7C00
7E00
7700
6380
61C0
60E0
6070
6030
0000
0000
0000
0000
0000
0000
0000
0000
ENDCHAR
STARTCHAR Latin small letter l
ENCODING 108
SWIDTH 367 0
DWIDTH 13 0
BBX 13 34 0 -8
BITMAP
0000
0000
0000
0000
0000
0000
3E00
3E00
0600
0600
0600
0600
0600
0600
0600
0600
0600
0600
0600
0600
0600
0600
0600
0600
3FC0
3FC0
0000
0000
0000
0000
0000
0000
0000
0000
ENDCHAR
STARTCHAR Latin small letter m
ENCODING 109
SWIDTH 367 0
DWIDTH 13 0
BBX 13 34 0 -8
BITMAP
0000
0000
0000
0000
0000
0000
0000
0000
0000
0000
0000
0000
7DC0
7FE0
6660
6660
6660
6660
6660
6660
6660
6660
6660
6660
6660
6660
0000
0000
0000
0000
0000
0000
0000
0000
ENDCHAR
STARTCHAR Latin small letter n
ENCODING 110
SWIDTH 367 0
DWIDTH 13 0
BBX 13 34 0 -8
BITMAP
0000
0000
0000
0000
0000
0000
0000
0000
0000
0000
0000
0000
6F00
7FC0
70C0
6060
6060
6060
6060
6060
6060
6060
6060
6060
6060
6060
0000
0000
0000
0000
0000
0000
0000
0000
ENDCHAR
STARTCHAR Latin small letter o
ENCODING 111
SWIDTH 367 0
DWIDTH 13 0
BBX 13 34 0 -8
BITMAP
0000
0000
0000
0000
0000
0000
0000
0000
0000
0000
0000
0000
0F00
3FC0
70E0
6060
C030
C030
C030
C030
C030
C030
6060
70E0
3FC0
0F00
0000
0000
0000
0000
0000
0000
0000
0000
ENDCHAR
STARTCHAR Latin small letter p
ENCODING 112
SWIDTH 367 0
DWIDTH 13 0
BBX 13 34 0 -8
BITMAP
0000
0000
0000
0000
0000
0000
0000
0000
0000
0000
0000
0000
6700
7FC0
78E0
7060
6030
6030
6030
6030
6030
6030
7060
78E0
7FC0
6700
6000
6000
6000
6000
6000
6000
0000
0000
ENDCHAR
STARTCHAR Latin small letter q
ENCODING 113
SWIDTH 367 0
DWIDTH 13 0
BBX 13 34 0 -8
BITMAP
0000
0000
0000
0000
0000
0000
0000
0000
0000
0000
0000
0000
0E60
3FE0
71E0
60E0
C060
C060
C060
C060
C060
C060
60E0
71E0
3FE0
0E60
0060
0060
0060
0060
0060
0060
0000
0000
ENDCHAR
STARTCHAR Latin small letter r
ENCODING 114
SWIDTH 367 0
DWIDTH 13 0
BBX 13 34 0 -8
BITMAP
0000
0000
0000
0000
0000
0000
0000
0000
0000
0000
0000
0000
6780
7FE0
7860
7030
6030
6000
6000
6000
6000
6000
6000
6000
6000
6000
0000
0000
0000
0000
0000
0000
0000
0000
ENDCHAR
STARTCHAR Latin small letter s
ENCODING 115
SWIDTH 367 0
DWIDTH 13 0
BBX 13 34 0 -8
BITMAP
0000
0000
0000
0000
0000
0000
0000
0000
0000
0000
0000
0000
1F00
7FC0
60E0
C060
C000
7000
7F00
0FE0
00E0
0030
C030
E060
7FE0
1F80
0000
0000
0000
0000
0000
0000
0000
0000
ENDCHAR
STARTCHAR Latin small letter t
ENCODING 116
SWIDTH 367 0
DWIDTH 13 0
BBX 13 34 0 -8
BITMAP
0000
0000
0000
0000
0000
0000
0000
0000
0C00
0C00
0C00
0C00
7FE0
7FE0
0C00
0C00
0C00
0C00
0C00
0C00
0C00
0C00
0C00
0E30
07F0
03C0
0000
0000
0000
0000
0000
0000
0000
0000
ENDCHAR
STARTCHAR Latin small letter u
ENCODING 117
SWIDTH 367 0
DWIDTH 13 0
BBX 13 34 0 -8
BITMAP
0000
0000
0000
0000
0000
0000
0000
0000
0000
0000
0000
0000
6060
6060
6060
6060
6060
6060
6060
6060
6060
6060
6060
30E0
3FE0
0F60
0000
0000
0000
0000
0000
0000
0000
0000
ENDCHAR
STARTCHAR Latin small letter v
ENCODING 118
SWIDTH 367 0
DWIDTH 13 0
BBX 13 34 0 -8
BITMAP
0000
0000
0000
0000
0000
0000
0000
0000
0000
0000
0000
0000
C030
C030
C030
6060
6060
6060
30C0
30C0
1980
1980
0F00
0F00
0600
0600
0000
0000
0000
0000
0000
0000
0000
0000
ENDCHAR
STARTCHAR Latin small letter w
ENCODING 119
SWIDTH 367 0
DWIDTH 13 0
BBX 13 34 0 -8
BITMAP
0000
0000
0000
0000
0000
0000
0000
0000
0000
0000
0000
0000
C630
C630
C630
CF30
6F60
6F60
6F60
79E0
79E0
39C0
39C0
30C0
30C0
30C0
0000
0000
0000
0000
0000
0000
0000
0000
ENDCHAR
STARTCHAR Latin small letter x
ENCODING 120
SWIDTH 367 0
DWIDTH 13 0
BBX 13 34 0 -8
BITMAP
0000
0000
0000
0000
0000
0000
0000
0000
0000
0000
0000
0000
C030
E070
70E0
30C0
1980
1F80
0F00
0F00
1F80
1980
30C0
70E0
E070
C030
0000
0000
0000
0000
0000
0000
0000
0000
ENDCHAR
STARTCHAR Latin small letter y
ENCODING 121
SWIDTH 367 0
DWIDTH 13 0
BBX 13 34 0 -8
BITMAP
0000
0000
0000
0000
0000
0000
0000
0000
0000
0000
0000
0000
C030
C030
C030
6060
6060
6060
30C0
30C0
1980
1980
0F00
0F00
0600
0600
0C00
0C00
1800
3800
F000
E000
0000
0000
ENDCHAR
STARTCHAR Latin small letter z
ENCODING 122
SWIDTH 367 0
DWIDTH 13 0
BBX 13 34 0 -8
BITMAP
0000
0000
0000
0000
0000
0000
0000
0000
0000
0000
0000
0000
FFF0
FFF0
0070
00E0
01C0
0380
0700
0E00
1C00
3800
7000
E000
FFF0
FFF0
0000
0000
0000
0000
0000
0000
0000
0000
ENDCHAR
STARTCHAR left curly bracket
ENCODING 123
SWIDTH 367 0
DWIDTH 13 0
BBX 13 34 0 -8
BITMAP
0000
0000
0000
0000
0000
0000
00F0
03F0
0300
0600
0600
0600
0600
0600
0600
0600
0600
0E00
3C00
3C00
0E00
0600
0600
0600
0600
0600
0600
0600
0600
0300
03F0
00F0
0000
0000
ENDCHAR
STARTCHAR vertical line
ENCODING 124
SWIDTH 367 0
DWIDTH 13 0
BBX 13 34 0 -8
BITMAP
0000
0000
0000
0000
0000
0000
0600
0600
0600
0600
0600
0600
0600
0600
0600
0600
0600
0600
0600
0600
0600
0600
0600
0600
0600
0600
0600
0600
0600
0600
0600
0600
0000
0000
ENDCHAR
STARTCHAR right curly bracket
ENCODING 125
SWIDTH 367 0
DWIDTH 13 0
BBX 13 34 0 -8
BITMAP
0000
0000
0000
0000
0000
0000
F000
FC00
0C00
0600
0600
0600
0600
0600
0600
0600
0600
0700
03C0
03C0
0700
0600
0600
0600
0600
0600
0600
0600
0600
0C00
FC00
F000
0000
0000
ENDCHAR
STARTCHAR tilde
ENCODING 126
SWIDTH 367 0
DWIDTH 13 0
BBX 13 34 0 -8
BITMAP
0000
0000
0000
0000
0000
0000
1C60
3EE0
77C0
6380
0000
0000
0000
0000
0000
0000
0000
0000
0000
0000
0000
0000
0000
0000
0000
0000
0000
0000
0000
0000
0000
0000
0000
0000
ENDCHAR
STARTCHAR no-break space
ENCODING 160
SWIDTH 367 0
DWIDTH 13 0
BBX 13 34 0 -8
BITMAP
0000
0000
0000
0000
0000
0000
0000
0000
0000
0000
0000
0000
0000
0000
0000
0000
0000
0000
0000
0000
0000
0000
0000
0000
0000
0000
0000
0000
0000
0000
0000
0000
0000
0000
ENDCHAR
STARTCHAR inverted exclamation mark
ENCODING 161
SWIDTH 367 0
DWIDTH 13 0
BBX 13 34 0 -8
BITMAP
0000
0000
0000
0000
0000
0000
0600
0600
0600
0000
0000
0600
0600
0600
0600
0600
0600
0600
0600
0600
0600
0600
0600
0600
0600
0600
0000
0000
0000
0000
0000
0000
0000
0000
ENDCHAR
STARTCHAR cent sign
ENCODING 162
SWIDTH 367 0
DWIDTH 13 0
BBX 13 34 0 -8
BITMAP
0000
0000
0000
0000
0000
0000
0180
0180
0180
0780
1FE0
3B60
3300
6300
6600
6600
6600
6600
6C00
3C00
3C60
1FE0
1F80
1800
1800
1800
0000
0000
0000
0000
0000
0000
0000
0000
ENDCHAR
STARTCHAR pound sign
ENCODING 163
SWIDTH 367 0
DWIDTH 13 0
BBX 13 34 0 -8
BITMAP
0000
0000
0000
0000
0000
0000
0F00
3FC0
30C0
6060
6060
6000
6000
6000
3000
FE00
FE00
3000
3000
3000
3000
3000
6000
7E30
FFF0
C1E0
0000
0000
0000
0000
0000
0000
0000
0000
ENDCHAR
STARTCHAR currency sign
ENCODING 164
SWIDTH 367 0
DWIDTH 13 0
BBX 13 34 0 -8
BITMAP
0000
0000
0000
0000
0000
0000
0000
0000
0000
C030
EF70
7FE0
30C0
6060
6060
6060
6060
6060
6060
30C0
7FE0
EF70
C030
0000
0000
0000
0000
0000
0000
0000
0000
0000
0000
0000
ENDCHAR
STARTCHAR yen sign
ENCODING 165
SWIDTH 367 0
DWIDTH 13 0
BBX 13 34 0 -8
BITMAP
0000
0000
0000
0000
0000
0000
C030
C030
6060
6060
30C0
30C0
1980
FFF0
FFF0
0F00
0600
0600
FFF0
FFF0
0600
0600
0600
0600
0600
0600
0000
0000
0000
0000
0000
0000
0000
0000
ENDCHAR
STARTCHAR broken bar
ENCODING 166
SWIDTH 367 0
DWIDTH 13 0
BBX 13 34 0 -8
BITMAP
0000
0000
0000
0000
0000
0000
0600
0600
0600
0600
0600
0600
0600
0600
0600
0600
0600
0600
0000
0000
0600
0600
0600
0600
0600
0600
0600
0600
0600
0600
0600
0600
0000
0000
ENDCHAR
STARTCHAR section sign
ENCODING 167
SWIDTH 367 0
DWIDTH 13 0
BBX 13 34 0 -8
BITMAP
0000
0000
0000
0000
0000
0000
0F00
3FC0
30E0
6060
6000
3000
7E00
6F80
C1E0
C060
6030
7830
1F60
07E0
00C0
0060
6060
70C0
3FC0
0F00
0000
0000
0000
0000
0000
0000
0000
0000
ENDCHAR
STARTCHAR diaeresis
ENCODING 168
SWIDTH 367 0
DWIDTH 13 0
BBX 13 34 0 -8
BITMAP
0000
0000
0000
0000
0000
0000
0000
30C0
30C0
30C0
0000
0000
0000
0000
0000
0000
0000
0000
0000
0000
0000
0000
0000
0000
0000
0000
0000
0000
0000
0000
0000
0000
0000
0000
ENDCHAR
STARTCHAR copyright sign
ENCODING 169
SWIDTH 367 0
DWIDTH 13 0
BBX 13 34 0 -8
BITMAP
0000
0000
0000
0000
0000
0000
0F00
3FC0
30C0
6060
6060
CF30
DFB0
D9B0
D830
D830
D830
D830
D9B0
DFB0
CF30
6060
6060
30C0
3FC0
0F00
0000
0000
0000
0000
0000
0000
0000
0000
ENDCHAR
STARTCHAR feminine ordinal indicator
ENCODING 170
SWIDTH 367 0
DWIDTH 13 0
BBX 13 34 0 -8
BITMAP
0000
0000
0000
0000
0000
0000
0F00
3F80
31C0
00C0
0FC0
3FC0
30C0
60C0
61C0
3FE0
3EE0
0000
7FE0
7FE0
0000
0000
0000
0000
0000
0000
0000
0000
0000
0000
0000
0000
0000
0000
ENDCHAR
STARTCHAR left-pointing double angle quotation mark
ENCODING 171
SWIDTH 367 0
DWIDTH 13 0
BBX 13 34 0 -8
BITMAP
0000
0000
0000
0000
0000
0000
0000
0000
0000
0000
0000
0000
0C30
1C70
38E0
71C0
E380
E380
71C0
38E0
1C70
0C30
0000
0000
0000
0000
0000
0000
0000
0000
0000
0000
0000
0000
ENDCHAR
STARTCHAR not sign
ENCODING 172
SWIDTH 367 0
DWIDTH 13 0
BBX 13 34 0 -8
BITMAP
0000
0000
0000
0000
0000
0000
0000
0000
0000
0000
0000
0000
0000
0000
7FE0
7FE0
0060
0060
0060
0060
0000
0000
0000
0000
0000
0000
0000
0000
0000
0000
0000
0000
0000
0000
ENDCHAR
STARTCHAR soft hyphen
ENCODING 173
SWIDTH 367 0
DWIDTH 13 0
BBX 13 34 0 -8
BITMAP
0000
0000
0000
0000
0000
0000
0000
0000
0000
0000
0000
0000
0000
0000
0000
0000
7FE0
7FE0
0000
0000
0000
0000
0000
0000
0000
0000
0000
0000
0000
0000
0000
0000
0000
0000
ENDCHAR
STARTCHAR copyright sign
ENCODING 174
SWIDTH 367 0
DWIDTH 13 0
BBX 13 34 0 -8
BITMAP
0000
0000
0000
0000
0000
0000
0F00
3FC0
30C0
6060
6060
DF30
DFB0
D9B0
D9B0
D9B0
DFB0
DF30
DB30
D9B0
D9B0
6060
6060
30C0
3FC0
0F00
0000
0000
0000
0000
0000
0000
0000
0000
ENDCHAR
STARTCHAR macron
ENCODING 175
SWIDTH 367 0
DWIDTH 13 0
BBX 13 34 0 -8
BITMAP
0000
0000
0000
0000
0000
0000
0000
0000
7FE0
7FE0
0000
0000
0000
0000
0000
0000
0000
0000
0000
0000
0000
0000
0000
0000
0000
0000
0000
0000
0000
0000
0000
0000
0000
0000
ENDCHAR
STARTCHAR degree sign
ENCODING 176
SWIDTH 367 0
DWIDTH 13 0
BBX 13 34 0 -8
BITMAP
0000
0000
0000
0000
0000
0000
0F00
1F80
1980
1980
1980
1F80
0F00
0000
0000
0000
0000
0000
0000
0000
0000
0000
0000
0000
0000
0000
0000
0000
0000
0000
0000
0000
0000
0000
ENDCHAR
STARTCHAR plus-minus sign
ENCODING 177
SWIDTH 367 0
DWIDTH 13 0
BBX 13 34 0 -8
BITMAP
0000
0000
0000
0000
0000
0000
0000
0000
0000
0000
0600
0600
0600
0600
7FE0
7FE0
0600
0600
0600
0600
0000
0000
7FE0
7FE0
0000
0000
0000
0000
0000
0000
0000
0000
0000
0000
ENDCHAR
STARTCHAR superscript two
ENCODING 178
SWIDTH 367 0
DWIDTH 13 0
BBX 13 34 0 -8
BITMAP
0000
0000
0000
0000
0000
0000
0F00
1F80
39C0
30C0
01C0
0380
0700
0E00
1C00
3800
3FC0
3FC0
0000
0000
0000
0000
0000
0000
0000
0000
0000
0000
0000
0000
0000
0000
0000
0000
ENDCHAR
STARTCHAR superscript three
ENCODING 179
SWIDTH 367 0
DWIDTH 13 0
BBX 13 34 0 -8
BITMAP
0000
0000
0000
0000
0000
0000
1F00
3F80
31C0
00C0
01C0
0F00
0F80
01C0
00C0
31C0
3F80
1F00
0000
0000
0000
0000
0000
0000
0000
0000
0000
0000
0000
0000
0000
0000
0000
0000
ENDCHAR
STARTCHAR acute accent
ENCODING 180
SWIDTH 367 0
DWIDTH 13 0
BBX 13 34 0 -8
BITMAP
0000
0000
0000
0000
0000
0000
0380
0380
0700
0600
0C00
0000
0000
0000
0000
0000
0000
0000
0000
0000
0000
0000
0000
0000
0000
0000
0000
0000
0000
0000
0000
0000
0000
0000
ENDCHAR
STARTCHAR micro sign
ENCODING 181
SWIDTH 367 0
DWIDTH 13 0
BBX 13 34 0 -8
BITMAP
0000
0000
0000
0000
0000
0000
0000
0000
0000
0000
0000
0000
6060
6060
6060
6060
6060
6060
6060
6060
6060
6060
6060
70E0
7FF0
6F30
6000
6000
6000
6000
6000
6000
0000
0000
ENDCHAR
STARTCHAR pilcrow sign
ENCODING 182
SWIDTH 367 0
DWIDTH 13 0
BBX 13 34 0 -8
BITMAP
0000
0000
0000
0000
0000
0000
1FE0
7FE0
7E60
FE60
FE60
FE60
FE60
FE60
7E60
7E60
1E60
0660
0660
0660
0660
0660
0660
0660
0660
0660
0000
0000
0000
0000
0000
0000
0000
0000
ENDCHAR
STARTCHAR middle dot
ENCODING 183
SWIDTH 367 0
DWIDTH 13 0
BBX 13 34 0 -8
BITMAP
0000
0000
0000
0000
0000
0000
0000
0000
0000
0000
0000
0000
0000
0000
0000
0600
0F00
0F00
0600
0000
0000
0000
0000
0000
0000
0000
0000
0000
0000
0000
0000
0000
0000
0000
ENDCHAR
STARTCHAR cedilla
ENCODING 184
SWIDTH 367 0
DWIDTH 13 0
BBX 13 34 0 -8
BITMAP
0000
0000
0000
0000
0000
0000
0000
0000
0000
0000
0000
0000
0000
0000
0000
0000
0000
0000
0000
0000
0000
0000
0000
0000
0000
0000
0600
0600
0F80
0180
1F80
1F00
0000
0000
ENDCHAR
STARTCHAR char185
ENCODING 185
SWIDTH 367 0
DWIDTH 13 0
BBX 13 34 0 -8
BITMAP
0000
0000
0000
0000
0000
0000
0600
0600
1E00
1E00
0600
0600
0600
0600
0600
0600
0600
0600
0000
0000
0000
0000
0000
0000
0000
0000
0000
0000
0000
0000
0000
0000
0000
0000
ENDCHAR
STARTCHAR masculine ordinal indicator
ENCODING 186
SWIDTH 367 0
DWIDTH 13 0
BBX 13 34 0 -8
BITMAP
0000
0000
0000
0000
0000
0000
0F00
3FC0
30C0
6060
6060
6060
6060
6060
30C0
3FC0
0F00
0000
7FE0
7FE0
0000
0000
0000
0000
0000
0000
0000
0000
0000
0000
0000
0000
0000
0000
ENDCHAR
STARTCHAR right-pointing double angle quotation mark
ENCODING 187
SWIDTH 367 0
DWIDTH 13 0
BBX 13 34 0 -8
BITMAP
0000
0000
0000
0000
0000
0000
0000
0000
0000
0000
0000
0000
C300
E380
71C0
38E0
1C70
1C70
38E0
71C0
E380
C300
0000
0000
0000
0000
0000
0000
0000
0000
0000
0000
0000
0000
ENDCHAR
STARTCHAR vulgar fraction one quarter
ENCODING 188
SWIDTH 367 0
DWIDTH 13 0
BBX 13 34 0 -8
BITMAP
0000
0000
0000
0000
0000
0000
3020
3060
F060
F0C0
30C0
3180
3180
3300
3300
0600
0600
0C60
0CE0
18E0
19E0
31E0
33F0
63F0
6060
4060
0000
0000
0000
0000
0000
0000
0000
0000
ENDCHAR
STARTCHAR vulgar fraction one half
ENCODING 189
SWIDTH 367 0
DWIDTH 13 0
BBX 13 34 0 -8
BITMAP
0000
0000
0000
0000
0000
0000
3020
3060
F060
F0C0
30C0
3180
3180
3300
3300
0600
0600
0DE0
0FF0
1B30
1870
30E0
31C0
6380
63F0
43F0
0000
0000
0000
0000
0000
0000
0000
0000
ENDCHAR
STARTCHAR vulgar fraction three quarters
ENCODING 190
SWIDTH 367 0
DWIDTH 13 0
BBX 13 34 0 -8
BITMAP
0000
0000
0000
0000
0000
0000
7820
FC60
CC60
0CC0
38C0
0D80
CD80
FF00
7B00
0600
0600
0C60
0CE0
18E0
19E0
31E0
33F0
63F0
6060
4060
0000
0000
0000
0000
0000
0000
0000
0000
ENDCHAR
STARTCHAR inverted question mark
ENCODING 191
SWIDTH 367 0
DWIDTH 13 0
BBX 13 34 0 -8
BITMAP
0000
0000
0000
0000
0000
0000
0600
0600
0600
0000
0000
0600
0600
0600
0C00
0C00
1800
1800
3000
3000
6000
6060
6060
30C0
3FC0
0F00
0000
0000
0000
0000
0000
0000
0000
0000
ENDCHAR
STARTCHAR Latin capital letter A with grave
ENCODING 192
SWIDTH 367 0
DWIDTH 13 0
BBX 13 34 0 -8
BITMAP
1C00
1C00
0E00
0600
0300
0000
0600
0600
0F00
0F00
0F00
1980
1980
1980
30C0
30C0
30C0
3FC0
7FE0
6060
6060
6060
C030
C030
C030
C030
0000
0000
0000
0000
0000
0000
0000
0000
ENDCHAR
STARTCHAR Latin capital letter A with acute
ENCODING 193
SWIDTH 367 0
DWIDTH 13 0
BBX 13 34 0 -8
BITMAP
0380
0380
0700
0600
0C00
0000
0600
0600
0F00
0F00
0F00
1980
1980
1980
30C0
30C0
30C0
3FC0
7FE0
6060
6060
6060
C030
C030
C030
C030
0000
0000
0000
0000
0000
0000
0000
0000
ENDCHAR
STARTCHAR Latin capital letter A with circumflex
ENCODING 194
SWIDTH 367 0
DWIDTH 13 0
BBX 13 34 0 -8
BITMAP
0600
0F00
1F80
39C0
30C0
0000
0600
0600
0F00
0F00
0F00
1980
1980
1980
30C0
30C0
30C0
3FC0
7FE0
6060
6060
6060
C030
C030
C030
C030
0000
0000
0000
0000
0000
0000
0000
0000
ENDCHAR
STARTCHAR Latin capital letter A with tilde
ENCODING 195
SWIDTH 367 0
DWIDTH 13 0
BBX 13 34 0 -8
BITMAP
1C60
3EE0
77C0
6380
0000
0000
0600
0600
0F00
0F00
0F00
1980
1980
1980
30C0
30C0
30C0
3FC0
7FE0
6060
6060
6060
C030
C030
C030
C030
0000
0000
0000
0000
0000
0000
0000
0000
ENDCHAR
STARTCHAR Latin capital letter A with diaeresis
ENCODING 196
SWIDTH 367 0
DWIDTH 13 0
BBX 13 34 0 -8
BITMAP
0000
30C0
30C0
30C0
0000
0000
0600
0600
0F00
0F00
0F00
1980
1980
1980
30C0
30C0
30C0
3FC0
7FE0
6060
6060
6060
C030
C030
C030
C030
0000
0000
0000
0000
0000
0000
0000
0000
ENDCHAR
STARTCHAR Latin capital letter A with ring above
ENCODING 197
SWIDTH 367 0
DWIDTH 13 0
BBX 13 34 0 -8
BITMAP
0F00
1980
1080
1080
1980
0F00
0600
0600
0F00
0F00
0F00
1980
1980
1980
30C0
30C0
30C0
3FC0
7FE0
6060
6060
6060
C030
C030
C030
C030
0000
0000
0000
0000
0000
0000
0000
0000
ENDCHAR
STARTCHAR Latin capital letter AE
ENCODING 198
SWIDTH 367 0
DWIDTH 13 0
BBX 13 34 0 -8
BITMAP
0000
0000
0000
0000
0000
0000
07F0
07F0
0F00
0F00
0F00
1B00
1B00
1B00
3300
33E0
33E0
3F00
7F00
6300
6300
6300
C300
C300
C3F0
C3F0
0000
0000
0000
0000
0000
0000
0000
0000
ENDCHAR
STARTCHAR Latin capital letter C with cedilla
ENCODING 199
SWIDTH 367 0
DWIDTH 13 0
BBX 13 34 0 -8
BITMAP
0000
0000
0000
0000
0000
0000
0F80
3FE0
3060
6030
6030
C000
C000
C000
C000
C000
C000
C000
C000
C000
C000
6030
6030
3060
3FE0
0F80
0600
0600
0F80
0180
1F80
1F00
0000
0000
ENDCHAR
STARTCHAR Latin capital letter E with grave
ENCODING 200
SWIDTH 367 0
DWIDTH 13 0
BBX 13 34 0 -8
BITMAP
1C00
1C00
0E00
0600
0300
0000
7FF0
7FF0
6000
6000
6000
6000
6000
6000
6000
7FC0
7FC0
6000
6000
6000
6000
6000
6000
6000
7FF0
7FF0
0000
0000
0000
0000
0000
0000
0000
0000
ENDCHAR
STARTCHAR Latin capital letter E with acute
ENCODING 201
SWIDTH 367 0
DWIDTH 13 0
BBX 13 34 0 -8
BITMAP
0380
0380
0700
0600
0C00
0000
7FF0
7FF0
6000
6000
6000
6000
6000
6000
6000
7FC0
7FC0
6000
6000
6000
6000
6000
6000
6000
7FF0
7FF0
0000
0000
0000
0000
0000
0000
0000
0000
ENDCHAR
STARTCHAR Latin capital letter E with circumflex
ENCODING 202
SWIDTH 367 0
DWIDTH 13 0
BBX 13 34 0 -8
BITMAP
0600
0F00
1F80
39C0
30C0
0000
7FF0
7FF0
6000
6000
6000
6000
6000
6000
6000
7FC0
7FC0
6000
6000
6000
6000
6000
6000
6000
7FF0
7FF0
0000
0000
0000
0000
0000
0000
0000
0000
ENDCHAR
STARTCHAR Latin capital letter E with diaeresis
ENCODING 203
SWIDTH 367 0
DWIDTH 13 0
BBX 13 34 0 -8
BITMAP
0000
30C0
30C0
30C0
0000
0000
7FF0
7FF0
6000
6000
6000
6000
6000
6000
6000
7FC0
7FC0
6000
6000
6000
6000
6000
6000
6000
7FF0
7FF0
0000
0000
0000
0000
0000
0000
0000
0000
ENDCHAR
STARTCHAR Latin captial letter I with grave
ENCODING 204
SWIDTH 367 0
DWIDTH 13 0
BBX 13 34 0 -8
BITMAP
1C00
1C00
0E00
0600
0300
0000
3FC0
3FC0
0600
0600
0600
0600
0600
0600
0600
0600
0600
0600
0600
0600
0600
0600
0600
0600
3FC0
3FC0
0000
0000
0000
0000
0000
0000
0000
0000
ENDCHAR
STARTCHAR Latin captial letter I with acute
ENCODING 205
SWIDTH 367 0
DWIDTH 13 0
BBX 13 34 0 -8
BITMAP
0380
0380
0700
0600
0C00
0000
3FC0
3FC0
0600
0600
0600
0600
0600
0600
0600
0600
0600
0600
0600
0600
0600
0600
0600
0600
3FC0
3FC0
0000
0000
0000
0000
0000
0000
0000
0000
ENDCHAR
STARTCHAR Latin captial letter I with circumflex
ENCODING 206
SWIDTH 367 0
DWIDTH 13 0
BBX 13 34 0 -8
BITMAP
0600
0F00
1F80
39C0
30C0
0000
3FC0
3FC0
0600
0600
0600
0600
0600
0600
0600
0600
0600
0600
0600
0600
0600
0600
0600
0600
3FC0
3FC0
0000
0000
0000
0000
0000
0000
0000
0000
ENDCHAR
STARTCHAR Latin captial letter I with diaeresis
ENCODING 207
SWIDTH 367 0
DWIDTH 13 0
BBX 13 34 0 -8
BITMAP
0000
30C0
30C0
30C0
0000
0000
3FC0
3FC0
0600
0600
0600
0600
0600
0600
0600
0600
0600
0600
0600
0600
0600
0600
0600
0600
3FC0
3FC0
0000
0000
0000
0000
0000
0000
0000
0000
ENDCHAR
STARTCHAR Latin capital letter Eth
ENCODING 208
SWIDTH 367 0
DWIDTH 13 0
BBX 13 34 0 -8
BITMAP
0000
0000
0000
0000
0000
0000
3F00
3FC0
30C0
3060
3060
3030
3030
3030
3030
FE30
FE30
3030
3030
3030
3030
3060
3060
30C0
3FC0
3F00
0000
0000
0000
0000
0000
0000
0000
0000
ENDCHAR
STARTCHAR Latin capital letter N with tilde
ENCODING 209
SWIDTH 367 0
DWIDTH 13 0
BBX 13 34 0 -8
BITMAP
1C60
3EE0
77C0
6380
0000
0000
6060
6060
7060
7060
7860
7860
6C60
6C60
6C60
6660
6660
6360
6360
6360
61E0
61E0
60E0
60E0
6060
6060
0000
0000
0000
0000
0000
0000
0000
0000
ENDCHAR
STARTCHAR Latin capital letter O with grave
ENCODING 210
SWIDTH 367 0
DWIDTH 13 0
BBX 13 34 0 -8
BITMAP
1C00
1C00
0E00
0600
0300
0000
0F00
3FC0
30C0
6060
6060
C030
C030
C030
C030
C030
C030
C030
C030
C030
C030
6060
6060
30C0
3FC0
0F00
0000
0000
0000
0000
0000
0000
0000
0000
ENDCHAR
STARTCHAR Latin capital letter O with acute
ENCODING 211
SWIDTH 367 0
DWIDTH 13 0
BBX 13 34 0 -8
BITMAP
0380
0380
0700
0600
0C00
0000
0F00
3FC0
30C0
6060
6060
C030
C030
C030
C030
C030
C030
C030
C030
C030
C030
6060
6060
30C0
3FC0
0F00
0000
0000
0000
0000
0000
0000
0000
0000
ENDCHAR
STARTCHAR Latin capital letter O with circumflex
ENCODING 212
SWIDTH 367 0
DWIDTH 13 0
BBX 13 34 0 -8
BITMAP
0600
0F00
1F80
39C0
30C0
0000
0F00
3FC0
30C0
6060
6060
C030
C030
C030
C030
C030
C030
C030
C030
C030
C030
6060
6060
30C0
3FC0
0F00
0000
0000
0000
0000
0000
0000
0000
0000
ENDCHAR
STARTCHAR Latin capital letter O with tilde
ENCODING 213
SWIDTH 367 0
DWIDTH 13 0
BBX 13 34 0 -8
BITMAP
1C60
3EE0
77C0
6380
0000
0000
0F00
3FC0
30C0
6060
6060
C030
C030
C030
C030
C030
C030
C030
C030
C030
C030
6060
6060
30C0
3FC0
0F00
0000
0000
0000
0000
0000
0000
0000
0000
ENDCHAR
STARTCHAR Latin capital letter O with diaeresis
ENCODING 214
SWIDTH 367 0
DWIDTH 13 0
BBX 13 34 0 -8
BITMAP
0000
30C0
30C0
30C0
0000
0000
0F00
3FC0
30C0
6060
6060
C030
C030
C030
C030
C030
C030
C030
C030
C030
C030
6060
6060
30C0
3FC0
0F00
0000
0000
0000
0000
0000
0000
0000
0000
ENDCHAR
STARTCHAR multiplication sign
ENCODING 215
SWIDTH 367 0
DWIDTH 13 0
BBX 13 34 0 -8
BITMAP
0000
0000
0000
0000
0000
0000
0000
0000
0000
0000
0000
0000
6060
70E0
39C0
1F80
0F00
0F00
1F80
39C0
70E0
6060
0000
0000
0000
0000
0000
0000
0000
0000
0000
0000
0000
0000
ENDCHAR
STARTCHAR Latin capital letter O with stroke
ENCODING 216
SWIDTH 367 0
DWIDTH 13 0
BBX 13 34 0 -8
BITMAP
0000
0000
0000
0000
0000
0030
0F30
3FE0
30E0
60E0
60E0
C1B0
C1B0
C330
C330
C630
C630
CC30
CC30
D830
D830
7060
7060
70C0
7FC0
CF00
C000
0000
0000
0000
0000
0000
0000
0000
ENDCHAR
STARTCHAR Latin capital letter U with grave
ENCODING 217
SWIDTH 367 0
DWIDTH 13 0
BBX 13 34 0 -8
BITMAP
1C00
1C00
0E00
0600
0300
0000
6060
6060
6060
6060
6060
6060
6060
6060
6060
6060
6060
6060
6060
6060
6060
6060
6060
30C0
3FC0
0F00
0000
0000
0000
0000
0000
0000
0000
0000
ENDCHAR
STARTCHAR Latin capital letter U with acute
ENCODING 218
SWIDTH 367 0
DWIDTH 13 0
BBX 13 34 0 -8
BITMAP
0380
0380
0700
0600
0C00
0000
6060
6060
6060
6060
6060
6060
6060
6060
6060
6060
6060
6060
6060
6060
6060
6060
6060
30C0
3FC0
0F00
0000
0000
0000
0000
0000
0000
0000
0000
ENDCHAR
STARTCHAR Latin capital letter U with circumflex
ENCODING 219
SWIDTH 367 0
DWIDTH 13 0
BBX 13 34 0 -8
BITMAP
0600
0F00
1F80
39C0
30C0
0000
6060
6060
6060
6060
6060
6060
6060
6060
6060
6060
6060
6060
6060
6060
6060
6060
6060
30C0
3FC0
0F00
0000
0000
0000
0000
0000
0000
0000
0000
ENDCHAR
STARTCHAR Latin capital letter U with diaeresis
ENCODING 220
SWIDTH 367 0
DWIDTH 13 0
BBX 13 34 0 -8
BITMAP
0000
30C0
30C0
30C0
0000
0000
6060
6060
6060
6060
6060
6060
6060
6060
6060
6060
6060
6060
6060
6060
6060
6060
6060
30C0
3FC0
0F00
0000
0000
0000
0000
0000
0000
0000
0000
ENDCHAR
STARTCHAR Latin capital letter Y with acute
ENCODING 221
SWIDTH 367 0
DWIDTH 13 0
BBX 13 34 0 -8
BITMAP
0380
0380
0700
0600
0C00
0000
C030
C030
6060
6060
30C0
30C0
1980
1980
0F00
0F00
0600
0600
0600
0600
0600
0600
0600
0600
0600
0600
0000
0000
0000
0000
0000
0000
0000
0000
ENDCHAR
STARTCHAR Latin capital letter Thorn
ENCODING 222
SWIDTH 367 0
DWIDTH 13 0
BBX 13 34 0 -8
BITMAP
0000
0000
0000
0000
0000
0000
6000
6000
6000
6000
7F80
7FE0
6060
6030
6030
6030
6030
6030
6060
7FE0
7F80
6000
6000
6000
6000
6000
0000
0000
0000
0000
0000
0000
0000
0000
ENDCHAR
STARTCHAR Latin small letter sharp
ENCODING 223
SWIDTH 367 0
DWIDTH 13 0
BBX 13 34 0 -8
BITMAP
0000
0000
0000
0000
0000
0000
0F00
3FC0
30C0
6060
6060
6060
6060
6060
60C0
6780
67E0
6060
6030
6030
6030
6030
6030
6060
67E0
6780
0000
0000
0000
0000
0000
0000
0000
0000
ENDCHAR
STARTCHAR Latin small letter a with grave
ENCODING 224
SWIDTH 367 0
DWIDTH 13 0
BBX 13 34 0 -8
BITMAP
0000
0000
0000
0000
0000
0000
3800
3800
1C00
0C00
0600
0000
1F00
7FC0
60C0
0060
0060
1FE0
7FE0
6060
C060
C060
C060
E0E0
7FF0
3F30
0000
0000
0000
0000
0000
0000
0000
0000
ENDCHAR
STARTCHAR Latin small letter a with acute
ENCODING 225
SWIDTH 367 0
DWIDTH 13 0
BBX 13 34 0 -8
BITMAP
0000
0000
0000
0000
0000
0000
0380
0380
0700
0600
0C00
0000
1F00
7FC0
60C0
0060
0060
1FE0
7FE0
6060
C060
C060
C060
E0E0
7FF0
3F30
0000
0000
0000
0000
0000
0000
0000
0000
ENDCHAR
STARTCHAR Latin small letter a with circumflex
ENCODING 226
SWIDTH 367 0
DWIDTH 13 0
BBX 13 34 0 -8
BITMAP
0000
0000
0000
0000
0000
0000
0600
0F00
1F80
39C0
30C0
0000
1F00
7FC0
60C0
0060
0060
1FE0
7FE0
6060
C060
C060
C060
E0E0
7FF0
3F30
0000
0000
0000
0000
0000
0000
0000
0000
ENDCHAR
STARTCHAR Latin small letter a with tilde
ENCODING 227
SWIDTH 367 0
DWIDTH 13 0
BBX 13 34 0 -8
BITMAP
0000
0000
0000
0000
0000
0000
1C60
3EE0
77C0
6380
0000
0000
1F00
7FC0
60C0
0060
0060
1FE0
7FE0
6060
C060
C060
C060
E0E0
7FF0
3F30
0000
0000
0000
0000
0000
0000
0000
0000
ENDCHAR
STARTCHAR Latin small letter a with diaeresis
ENCODING 228
SWIDTH 367 0
DWIDTH 13 0
BBX 13 34 0 -8
BITMAP
0000
0000
0000
0000
0000
0000
0000
30C0
30C0
30C0
0000
0000
1F00
7FC0
60C0
0060
0060
1FE0
7FE0
6060
C060
C060
C060
E0E0
7FF0
3F30
0000
0000
0000
0000
0000
0000
0000
0000
ENDCHAR
STARTCHAR Latin small letter a with ring above
ENCODING 229
SWIDTH 367 0
DWIDTH 13 0
BBX 13 34 0 -8
BITMAP
0000
0000
0000
0000
0000
0F00
1980
1080
1080
1980
0F00
0000
1F00
7FC0
60C0
0060
0060
1FE0
7FE0
6060
C060
C060
C060
E0E0
7FF0
3F30
0000
0000
0000
0000
0000
0000
0000
0000
ENDCHAR
STARTCHAR Latin small letter ae
ENCODING 230
SWIDTH 367 0
DWIDTH 13 0
BBX 13 34 0 -8
BITMAP
0000
0000
0000
0000
0000
0000
0000
0000
0000
0000
0000
0000
39E0
7FE0
6630
0630
0630
3FF0
7FF0
E600
C600
C600
C630
CE30
FFE0
79E0
0000
0000
0000
0000
0000
0000
0000
0000
ENDCHAR
STARTCHAR Latin small letter c with cedilla
ENCODING 231
SWIDTH 367 0
DWIDTH 13 0
BBX 13 34 0 -8
BITMAP
0000
0000
0000
0000
0000
0000
0000
0000
0000
0000
0000
0000
0F80
3FE0
7070
6030
C000
C000
C000
C000
C000
C000
6030
7070
3FE0
0F80
0600
0600
0F80
0180
1F80
1F00
0000
0000
ENDCHAR
STARTCHAR Latin small letter e with grave
ENCODING 232
SWIDTH 367 0
DWIDTH 13 0
BBX 13 34 0 -8
BITMAP
0000
0000
0000
0000
0000
0000
1C00
1C00
0E00
0600
0300
0000
0F00
3FC0
70E0
6060
C030
FFF0
FFF0
C000
C000
C000
6030
7070
3FE0
0F80
0000
0000
0000
0000
0000
0000
0000
0000
ENDCHAR
STARTCHAR Latin small letter e with acute
ENCODING 233
SWIDTH 367 0
DWIDTH 13 0
BBX 13 34 0 -8
BITMAP
0000
0000
0000
0000
0000
0000
0380
0380
0700
0600
0C00
0000
0F00
3FC0
70E0
6060
C030
FFF0
FFF0
C000
C000
C000
6030
7070
3FE0
0F80
0000
0000
0000
0000
0000
0000
0000
0000
ENDCHAR
STARTCHAR Latin small letter e with circumflex
ENCODING 234
SWIDTH 367 0
DWIDTH 13 0
BBX 13 34 0 -8
BITMAP
0000
0000
0000
0000
0000
0000
0600
0F00
1F80
39C0
30C0
0000
0F00
3FC0
70E0
6060
C030
FFF0
FFF0
C000
C000
C000
6030
7070
3FE0
0F80
0000
0000
0000
0000
0000
0000
0000
0000
ENDCHAR
STARTCHAR Latin small letter e with diaeresis
ENCODING 235
SWIDTH 367 0
DWIDTH 13 0
BBX 13 34 0 -8
BITMAP
0000
0000
0000
0000
0000
0000
0000
30C0
30C0
30C0
0000
0000
0F00
3FC0
70E0
6060
C030
FFF0
FFF0
C000
C000
C000
6030
7070
3FE0
0F80
0000
0000
0000
0000
0000
0000
0000
0000
ENDCHAR
STARTCHAR Latin small letter i with grave
ENCODING 236
SWIDTH 367 0
DWIDTH 13 0
BBX 13 34 0 -8
BITMAP
0000
0000
0000
0000
0000
0000
3800
3800
1C00
0C00
0600
0000
3E00
3E00
0600
0600
0600
0600
0600
0600
0600
0600
0600
0600
3FC0
3FC0
0000
0000
0000
0000
0000
0000
0000
0000
ENDCHAR
STARTCHAR Latin small letter i with acute
ENCODING 237
SWIDTH 367 0
DWIDTH 13 0
BBX 13 34 0 -8
BITMAP
0000
0000
0000
0000
0000
0000
0380
0380
0700
0600
0C00
0000
3E00
3E00
0600
0600
0600
0600
0600
0600
0600
0600
0600
0600
3FC0
3FC0
0000
0000
0000
0000
0000
0000
0000
0000
ENDCHAR
STARTCHAR Latin small letter i with circumflex
ENCODING 238
SWIDTH 367 0
DWIDTH 13 0
BBX 13 34 0 -8
BITMAP
0000
0000
0000
0000
0000
0000
0600
0F00
1F80
39C0
30C0
0000
1F00
1F00
0300
0300
0300
0300
0300
0300
0300
0300
0300
0300
1FE0
1FE0
0000
0000
0000
0000
0000
0000
0000
0000
ENDCHAR
STARTCHAR Latin small letter i with diaeresis
ENCODING 239
SWIDTH 367 0
DWIDTH 13 0
BBX 13 34 0 -8
BITMAP
0000
0000
0000
0000
0000
0000
0000
3180
3180
3180
0000
0000
3E00
3E00
0600
0600
0600
0600
0600
0600
0600
0600
0600
0600
3FC0
3FC0
0000
0000
0000
0000
0000
0000
0000
0000
ENDCHAR
STARTCHAR Latin small letter eth
ENCODING 240
SWIDTH 367 0
DWIDTH 13 0
BBX 13 34 0 -8
BITMAP
0000
0000
0000
0000
0000
0000
3C30
3FF0
03C0
0FC0
3CC0
3060
0060
0F60
3FF0
70F0
6070
C030
C030
C030
C030
C030
6060
70E0
3FC0
0F00
0000
0000
0000
0000
0000
0000
0000
0000
ENDCHAR
STARTCHAR Latin small letter n with tilde
ENCODING 241
SWIDTH 367 0
DWIDTH 13 0
BBX 13 34 0 -8
BITMAP
0000
0000
0000
0000
0000
0000
1C60
3EE0
77C0
6380
0000
0000
6F00
7FC0
70C0
6060
6060
6060
6060
6060
6060
6060
6060
6060
6060
6060
0000
0000
0000
0000
0000
0000
0000
0000
ENDCHAR
STARTCHAR Latin small letter o with grave
ENCODING 242
SWIDTH 367 0
DWIDTH 13 0
BBX 13 34 0 -8
BITMAP
0000
0000
0000
0000
0000
0000
1C00
1C00
0E00
0600
0300
0000
0F00
3FC0
70E0
6060
C030
C030
C030
C030
C030
C030
6060
70E0
3FC0
0F00
0000
0000
0000
0000
0000
0000
0000
0000
ENDCHAR
STARTCHAR Latin small letter o with acute
ENCODING 243
SWIDTH 367 0
DWIDTH 13 0
BBX 13 34 0 -8
BITMAP
0000
0000
0000
0000
0000
0000
0380
0380
0700
0600
0C00
0000
0F00
3FC0
70E0
6060
C030
C030
C030
C030
C030
C030
6060
70E0
3FC0
0F00
0000
0000
0000
0000
0000
0000
0000
0000
ENDCHAR
STARTCHAR Latin small letter o with circumflex
ENCODING 244
SWIDTH 367 0
DWIDTH 13 0
BBX 13 34 0 -8
BITMAP
0000
0000
0000
0000
0000
0000
0600
0F00
1F80
39C0
30C0
0000
0F00
3FC0
70E0
6060
C030
C030
C030
C030
C030
C030
6060
70E0
3FC0
0F00
0000
0000
0000
0000
0000
0000
0000
0000
ENDCHAR
STARTCHAR Latin small letter o with tilde
ENCODING 245
SWIDTH 367 0
DWIDTH 13 0
BBX 13 34 0 -8
BITMAP
0000
0000
0000
0000
0000
0000
1C60
3EE0
77C0
6380
0000
0000
0F00
3FC0
70E0
6060
C030
C030
C030
C030
C030
C030
6060
70E0
3FC0
0F00
0000
0000
0000
0000
0000
0000
0000
0000
ENDCHAR
STARTCHAR Latin small letter o with diaeresis
ENCODING 246
SWIDTH 367 0
DWIDTH 13 0
BBX 13 34 0 -8
BITMAP
0000
0000
0000
0000
0000
0000
0000
30C0
30C0
30C0
0000
0000
0F00
3FC0
70E0
6060
C030
C030
C030
C030
C030
C030
6060
70E0
3FC0
0F00
0000
0000
0000
0000
0000
0000
0000
0000
ENDCHAR
STARTCHAR division sign
ENCODING 247
SWIDTH 367 0
DWIDTH 13 0
BBX 13 34 0 -8
BITMAP
0000
0000
0000
0000
0000
0000
0000
0000
0000
0000
0000
0600
0600
0600
0000
0000
7FE0
7FE0
0000
0000
0600
0600
0600
0000
0000
0000
0000
0000
0000
0000
0000
0000
0000
0000
ENDCHAR
STARTCHAR Latin small letter o with stroke
ENCODING 248
SWIDTH 367 0
DWIDTH 13 0
BBX 13 34 0 -8
BITMAP
0000
0000
0000
0000
0000
0000
0000
0000
0000
0030
0060
0060
0FC0
3FC0
71E0
61E0
C330
C330
C630
C630
CC30
CC30
7860
78E0
3FC0
3F00
6000
6000
C000
0000
0000
0000
0000
0000
ENDCHAR
STARTCHAR Latin small letter u with grave
ENCODING 249
SWIDTH 367 0
DWIDTH 13 0
BBX 13 34 0 -8
BITMAP
0000
0000
0000
0000
0000
0000
1C00
1C00
0E00
0600
0300
0000
6060
6060
6060
6060
6060
6060
6060
6060
6060
6060
6060
30E0
3FE0
0F60
0000
0000
0000
0000
0000
0000
0000
0000
ENDCHAR
STARTCHAR Latin small letter u with acute
ENCODING 250
SWIDTH 367 0
DWIDTH 13 0
BBX 13 34 0 -8
BITMAP
0000
0000
0000
0000
0000
0000
0380
0380
0700
0600
0C00
0000
6060
6060
6060
6060
6060
6060
6060
6060
6060
6060
6060
30E0
3FE0
0F60
0000
0000
0000
0000
0000
0000
0000
0000
ENDCHAR
STARTCHAR Latin small letter u with circumflex
ENCODING 251
SWIDTH 367 0
DWIDTH 13 0
BBX 13 34 0 -8
BITMAP
0000
0000
0000
0000
0000
0000
0600
0F00
1F80
39C0
30C0
0000
6060
6060
6060
6060
6060
6060
6060
6060
6060
6060
6060
30E0
3FE0
0F60
0000
0000
0000
0000
0000
0000
0000
0000
ENDCHAR
STARTCHAR Latin small letter u with diaeresis
ENCODING 252
SWIDTH 367 0
DWIDTH 13 0
BBX 13 34 0 -8
BITMAP
0000
0000
0000
0000
0000
0000
0000
30C0
30C0
30C0
0000
0000
6060
6060
6060
6060
6060
6060
6060
6060
6060
6060
6060
30E0
3FE0
0F60
0000
0000
0000
0000
0000
0000
0000
0000
ENDCHAR
STARTCHAR Latin small letter y with acute
ENCODING 253
SWIDTH 367 0
DWIDTH 13 0
BBX 13 34 0 -8
BITMAP
0000
0000
0000
0000
0000
0000
0380
0380
0700
0600
0C00
0000
C030
C030
C030
6060
6060
6060
30C0
30C0
1980
1980
0F00
0F00
0600
0600
0C00
0C00
1800
3800
F000
E000
0000
0000
ENDCHAR
STARTCHAR Latin small letter thorn
ENCODING 254
SWIDTH 367 0
DWIDTH 13 0
BBX 13 34 0 -8
BITMAP
0000
0000
0000
0000
0000
0000
6000
6000
6000
6000
6000
6000
6700
7FC0
78E0
7060
6030
6030
6030
6030
6030
6030
7060
78E0
7FC0
6700
6000
6000
6000
6000
6000
6000
0000
0000
ENDCHAR
STARTCHAR Latin small letter y with diaeresis
ENCODING 255
SWIDTH 367 0
DWIDTH 13 0
BBX 13 34 0 -8
BITMAP
0000
0000
0000
0000
0000
0000
0000
30C0
30C0
30C0
0000
0000
C030
C030
C030
6060
6060
6060
30C0
30C0
1980
1980
0F00
0F00
0600
0600
0C00
0C00
1800
3800
F000
E000
0000
0000
ENDCHAR
ENDFONT
